<svg width="34" height="22" viewBox="0 0 34 22" fill="none" xmlns="http://www.w3.org/2000/svg">
<path d="M33.399 9.85443L26.1839 1.46043C26.0133 1.26017 25.8012 1.09889 25.5622 0.987577C25.3233 0.876266 25.063 0.817549 24.7991 0.81543H9.28493C8.75272 0.81543 8.24689 1.05843 7.90012 1.46043L0.685059 9.85443V14.4624H33.399V9.85443Z" fill="url(#paint0_linear_739_18195)"/>
<path d="M31.3545 14.6319L25.0396 7.32091C24.8869 7.14829 24.6987 7.01038 24.4877 6.91655C24.2767 6.82273 24.0479 6.77519 23.8168 6.77716H10.2672C9.80208 6.77716 9.34751 6.96916 9.04446 7.32091L2.72949 14.6319V18.6474H31.3545V14.6319Z" fill="url(#paint1_linear_739_18195)"/>
<path d="M33.399 19.7433C33.399 20.383 33.1095 20.9583 32.6527 21.3438L32.5599 21.4188C32.1977 21.6919 31.7555 21.8394 31.301 21.8388H2.78377C2.52595 21.8388 2.27944 21.7923 2.05178 21.7068L1.9387 21.6618C1.56565 21.4967 1.24869 21.2275 1.0262 20.8869C0.803706 20.5462 0.685212 20.1488 0.685059 19.7425V9.90479H8.6223C9.49903 9.90479 10.2054 10.6225 10.2054 11.4933V11.5045C10.2054 12.376 10.92 13.0788 11.7967 13.0788H22.2873C22.7087 13.0784 23.1128 12.9119 23.411 12.6157C23.7093 12.3195 23.8774 11.9178 23.8786 11.4985C23.8786 10.624 24.5857 9.90479 25.4617 9.90479H33.3997L33.399 19.7433Z" fill="url(#paint2_linear_739_18195)"/>
<defs>
<linearGradient id="paint0_linear_739_18195" x1="17.042" y1="0.81543" x2="17.042" y2="6.94976" gradientUnits="userSpaceOnUse">
<stop stop-color="#5389F5"/>
<stop offset="1" stop-color="#416FDC"/>
</linearGradient>
<linearGradient id="paint1_linear_739_18195" x1="20.862" y1="18.6474" x2="20.862" y2="6.14607" gradientUnits="userSpaceOnUse">
<stop stop-color="#DCE9FF"/>
<stop offset="1" stop-color="#B6CFFF"/>
</linearGradient>
<linearGradient id="paint2_linear_739_18195" x1="17.0424" y1="9.90479" x2="17.0424" y2="21.8388" gradientUnits="userSpaceOnUse">
<stop stop-color="#7CA5F7"/>
<stop offset="1" stop-color="#C4D6FC"/>
</linearGradient>
</defs>
</svg>
